<svg width="1440" height="1049" viewBox="0 0 1440 1049" fill="none" xmlns="http://www.w3.org/2000/svg">
<g clip-path="url(#clip0_618_57)">
<path d="M2186 16.5413C2159.25 6.36902 2129.5 5.23877 2104.53 -10.4389C2098.76 -14.0848 2092.14 -12.6265 2085.83 -11.8243C2070.09 -9.85553 2055.25 -14.4312 2040.27 -18.0955C2027.64 -21.4245 2014.68 -23.4104 2001.63 -24.0201C1998.6 -23.9862 1995.6 -24.68 1992.88 -26.0436C1977.83 -34.6299 1961.39 -36.1612 1944.57 -36.4529C1933.9 -36.3766 1923.37 -38.8253 1913.82 -43.599C1905.44 -48.0106 1896.31 -50.3805 1887.62 -53.9717C1885.01 -54.8747 1882.18 -54.8747 1879.58 -53.9717C1864.29 -49.8883 1849.43 -51.6566 1833.89 -54.5369C1814.99 -58.037 1796.91 -63.7976 1778.59 -69.1208C1771.81 -70.8062 1765.31 -73.4781 1759.31 -77.0508C1751.76 -81.8634 1743.56 -81.0613 1735.62 -78.1628C1726.05 -74.6991 1715.99 -74.8632 1706.15 -73.3501C1686.72 -70.3604 1668.31 -63.2872 1655.26 -48.1017C1646.82 -37.6998 1634.95 -30.6379 1621.78 -28.1765C1608.31 -25.6608 1596.68 -21.942 1587.79 -9.83734C1580.5 0.0067749 1570.68 8.30133 1560.87 15.8303C1543.34 29.2839 1534.68 48.006 1527.03 67.6578C1525.85 71.4266 1524.14 75.0105 1521.96 78.304C1505.96 98.9584 1501.73 123.113 1500.09 148.234C1499.62 155.963 1495.57 162.599 1491.8 169.143C1484.74 181.339 1483.45 192.004 1492.4 205.22C1504.65 223.359 1514.8 243.12 1519.08 265.269C1520.79 274.038 1528.63 277.21 1536.56 279.16C1538.37 279.4 1540.2 279.455 1542.03 279.324C1556.39 279.744 1561.25 284.228 1563.02 298.994C1559.8 299.25 1559.38 296.461 1558.23 294.674C1553.62 287.127 1547 284.046 1538.18 284.903C1520.74 286.635 1513.21 281.002 1508.77 264.103C1505.41 251.342 1496.63 241.26 1490.41 229.922C1488.81 227.005 1485.11 226.075 1480.99 226.695C1477.78 230.341 1475.01 235.427 1467.78 235.609C1471.42 251.086 1463.93 262.845 1457.24 275.095C1448.57 290.937 1447.46 307.909 1451.78 325.373C1453.02 329.781 1453.22 334.419 1452.36 338.918C1447.62 360.247 1456.17 376.362 1472.02 390.435C1466.56 391.493 1463.09 385.696 1457.72 387.318C1453.34 391.693 1454.44 397.782 1453.74 403.342C1453.14 408.155 1453.38 413.132 1452.21 417.78C1448.22 433.622 1442.59 449.154 1444.56 465.943C1444.64 467.782 1444.31 469.615 1443.57 471.303C1434.84 494.182 1439.93 516.349 1446.42 538.644C1448.24 545.025 1452.89 548.452 1456.82 553.009C1463.38 560.611 1470.64 567.593 1477.69 574.575C1485.46 582.359 1494.31 586.844 1505.54 581.521C1507.69 580.5 1510.15 579.698 1512.32 582.195C1512.32 586.534 1509.73 587.664 1505.9 587.664C1485.36 588.484 1468.49 582.742 1455.26 565.333C1450.32 558.824 1443.83 551.605 1435.21 548.16C1433.9 547.709 1432.71 546.968 1431.72 545.993C1430.74 545.017 1429.99 543.833 1429.52 542.527C1422.07 518.701 1420.25 494.765 1428.7 470.774C1429.76 467.748 1430.52 465.032 1428.87 462.808C1403.79 463.118 1379.22 463.92 1354.6 464.248C1338.41 464.449 1321.79 465.506 1305.99 470.209C1297.75 472.634 1294.13 479.579 1299.45 485.176C1313.68 500.143 1302.2 513.232 1298.79 527.305C1288.66 523.932 1287.66 531.753 1284.5 536.092C1284.9 539.993 1289.53 537.222 1289.81 540.722C1288.86 544.915 1284.87 544.368 1281.9 545.334C1264.4 551.277 1246.41 555.926 1230.32 565.533C1226.4 567.847 1222.93 570.841 1220.06 574.375C1214.06 581.667 1206.52 585.531 1197.09 587.81C1181.48 591.583 1169.43 600.99 1164.29 616.978C1161.12 626.876 1157.69 636.557 1151.73 645.143C1147.38 651.414 1142.82 657.576 1134.4 658.706C1131.67 659.089 1130.75 661.513 1128.93 663.136C1119.47 671.922 1109.74 678.576 1095.4 678.303C1062.19 677.683 1035.71 689.933 1021.37 722.055C1016.03 734.031 1005.15 740.102 993.9 744.714C975.675 752.207 956.939 758.478 938.514 765.514C904.432 778.549 872.082 794.81 842.794 816.831C837.327 820.97 830.784 822.537 825.098 825.946C812.668 833.621 800.275 841.205 790.834 852.726C787.831 856.2 783.888 858.733 779.479 860.018C772.457 862.068 766.051 865.826 760.835 870.956C756.479 875.331 750.21 875.076 744.706 876.425C733.77 879.269 723.017 882.477 717.368 893.707C716.73 894.964 715.235 896.623 714.105 896.66C702.332 896.879 696.026 906.504 687.077 911.572C667.161 922.976 644.052 927.523 621.302 924.515C616.982 923.968 613.009 923.585 609.036 926.083C597.044 933.575 583.776 931.989 570.927 930.166C554.378 927.833 542.605 932.828 533.128 946.92C528.006 954.521 523.104 962.524 515.194 968.886C512.296 964.548 511.075 958.951 504.66 961.868C503.402 949.946 500.614 938.898 502.145 927.231C503.074 920.195 499.666 913.595 495.62 907.725C489.606 898.993 483.591 890.662 482.644 879.214C482.06 872.104 474.861 871.612 469.886 874.875C447.104 889.459 421.188 896.441 395.928 904.59C369.491 912.838 341.771 916.187 314.132 914.47C296.253 913.559 278.356 915.455 260.513 915.656C243.382 915.838 226.724 918.116 209.938 920.559C183.967 924.351 159.217 932.956 134.34 940.466C107.858 948.469 81.1217 954.868 54.1483 960.519C47.2773 961.941 42.9214 964.912 40.0782 971.639C36.0854 981.147 31.3758 990.337 25.9901 999.13C9.87891 1025.22 -13.7776 1039.8 -43.9952 1044.8C-62.3116 1047.84 -80.7192 1049.41 -99.145 1051.14C-113.361 1052.47 -127.431 1054.2 -141.063 1058.91C-152.217 1062.77 -163.335 1066.84 -175.491 1066.8C-195.065 1066.8 -210.593 1078.12 -226.522 1086.96C-248.392 1099.07 -270.262 1107.43 -295.778 1102.99C-301.529 1102.22 -307.379 1103.12 -312.636 1105.57C-319.168 1108.05 -325.982 1109.7 -332.921 1110.5C-348.549 1112.56 -363.933 1116.17 -378.849 1121.27C-396.728 1127.34 -415.865 1129.77 -434.564 1133.28C-463.178 1138.75 -491.974 1143.46 -519.731 1152.3C-539.779 1158.66 -556.965 1171.22 -576.12 1179.64C-583.847 1183.05 -590.7 1188.3 -598.355 1192.06C-609.946 1197.78 -618.712 1205.84 -624.235 1217.78C-627.57 1224.94 -633.347 1230.34 -639.817 1235.21C-652.884 1245.2 -663.888 1257.64 -672.222 1271.83C-677.061 1280.25 -682.597 1288.25 -688.771 1295.75C-692.809 1300.32 -695.42 1305.97 -696.279 1312.01C-698.337 1327.36 -702.272 1342.39 -707.998 1356.78C-710.792 1363.29 -711.135 1370.6 -708.964 1377.34C-702.348 1397.4 -705.957 1414.86 -720.792 1429.96C-721.554 1430.9 -722.214 1431.92 -722.761 1433H-823C-799.599 1420.24 -775.851 1407.48 -757.243 1387.97C-726.26 1355.38 -719.735 1333.16 -724.875 1287.56C-726.442 1273.71 -726.497 1259.69 -727.645 1245.78C-728.502 1235.28 -722.542 1227.2 -718.532 1218.43C-708.308 1195.74 -693.6 1177.22 -669.907 1166.84C-653.286 1159.55 -636.901 1151.68 -620.298 1144.29C-598.428 1134.58 -576.466 1125.13 -554.122 1116.51C-516.432 1101.93 -478.068 1089.62 -437.972 1084.3C-420.239 1081.93 -402.013 1081.4 -385.556 1074.38C-366.593 1066.31 -346.424 1061.44 -325.868 1059.96C-315.352 1059.14 -306.385 1053.09 -297.418 1048.2C-279.521 1038.49 -261.113 1029.41 -242.05 1022.99C-218.433 1015.19 -193.332 1012.96 -168.711 1016.48C-162.514 1017.32 -156.591 1016.23 -150.486 1015.96C-125.736 1014.86 -101.624 1020.55 -77.147 1022.34C-60.5073 1023.54 -45.8542 1020.39 -33.9713 1006.4C-18.3886 988.174 -4.68317 968.431 8.76715 948.706C25.1699 924.789 47.0403 910.423 74.1596 902.694C76.8068 902.024 79.3779 901.083 81.8324 899.887C87.7012 896.628 94.1954 894.653 100.885 894.094C107.574 893.534 114.306 894.403 120.634 896.642C148.428 906.267 174.617 900.288 199.86 888.183C214.012 881.187 229.3 876.779 245.004 875.167C255.21 874.164 264.942 869.698 275.841 871.521C279.996 872.232 284.553 869.005 288.034 866.052C302.088 854.036 318.377 844.917 335.966 839.218C340.786 837.385 345.26 834.746 349.198 831.415C371.56 814.042 395.563 800.899 424.869 798.93C443.641 797.654 460.044 789.596 475.445 778.111C487.309 769.252 501.379 762.944 515.176 757.22C525.364 753.009 531.087 755.707 536.335 765.496C541.584 775.286 549.476 783.58 556.948 791.857C568.977 805.183 584.286 807.443 601.035 804.107C611.97 801.919 623.033 799.641 634.078 797.672C647.874 795.193 658.646 787.846 668.013 777.838C677.381 767.83 686.676 757.785 696.445 748.324C709.203 735.909 713.631 721.836 707.982 704.572C703.771 691.891 700.607 678.886 698.522 665.688C697.727 660.516 698.02 655.234 699.381 650.181C700.743 645.128 703.144 640.416 706.431 636.344C709.717 632.272 713.818 628.932 718.469 626.535C723.12 624.139 728.22 622.74 733.442 622.428C737.074 621.989 740.746 621.989 744.377 622.428C759.96 625.29 770.531 618.527 778.331 605.657C792.529 582.232 811.355 564.056 836.652 552.79C844.653 549.254 849.41 531.133 846.603 519.977C841.516 498.741 838.652 477.034 838.056 455.206C837.126 430.942 837.035 406.569 838.329 382.287C839.131 367.138 844.106 352.991 855.916 341.543C868.603 329.45 879.12 315.268 887.009 299.614C901.381 270.295 922.041 244.507 947.517 224.088C963.664 211.327 980.049 198.894 995.541 185.404C1006.9 175.524 1018.09 164.805 1017.56 147.596C1017.19 136.056 1024.15 128.199 1032.36 121.819C1046.55 111.23 1056.95 96.3484 1062.03 79.3795C1065.78 66.9468 1071.52 55.152 1074.18 42.2635C1076.15 32.7658 1084.44 27.3698 1090.26 20.5701C1103.38 5.25696 1110.01 -14.413 1123.88 -29.0151C1134.02 -39.6978 1136.22 -54.7556 1145.55 -65.7118C1152.15 -73.4595 1158.93 -81.0978 1165.6 -88.7361C1166.38 -89.6476 1167.97 -90.1762 1168.24 -91.1424C1171.89 -103.776 1182.64 -100.513 1191.72 -103.593C1209.94 -109.773 1229.06 -101.934 1246.56 -110.193C1252.17 -112.836 1255.67 -115.753 1258.11 -121.769C1264.2 -137.337 1270.4 -152.759 1275.23 -168.838C1277.96 -177.953 1285.1 -183.987 1290.17 -191.498C1310.07 -220.902 1336.74 -242.158 1368.3 -257.745C1373.31 -259.933 1378.64 -261.3 1384.09 -261.792C1401.53 -264.289 1419.01 -266.112 1436.65 -265.256C1445.3 -264.818 1451.52 -268.136 1456.46 -275.537C1462.37 -284.375 1469.48 -292.35 1477.58 -299.236C1480.8 -302.032 1483.41 -305.457 1485.25 -309.299C1493.68 -326.836 1504.94 -341.857 1521.56 -352.467C1526.36 -355.72 1530.46 -359.905 1533.61 -364.772C1548.7 -386.648 1568.11 -404.641 1585.6 -424.347C1594.42 -434.283 1598.89 -446.716 1605.89 -457.69C1616.35 -474.097 1621.73 -493.074 1631.97 -509.645C1636.51 -516.937 1635.14 -526.325 1639.06 -534.018H1713.78C1706.78 -527.631 1702.04 -519.141 1700.28 -509.827C1695.61 -488.188 1690.73 -466.586 1685.84 -445.002C1678.55 -412.48 1672.26 -379.666 1657.03 -349.478C1648.24 -332.032 1636.98 -318.487 1615.49 -318.122C1613.85 -318.233 1612.21 -317.886 1610.76 -317.12C1609.31 -316.354 1608.09 -315.199 1607.26 -313.783C1608.26 -305.872 1609.82 -297.577 1613.98 -290.085C1618.14 -282.592 1621.82 -275.027 1630.53 -271.508C1645.38 -265.493 1660.55 -260.133 1674.45 -251.966C1675.59 -251.162 1676.97 -250.767 1678.36 -250.846C1679.76 -250.926 1681.08 -251.475 1682.12 -252.404C1684.2 -255.922 1684.11 -259.696 1683.95 -263.761C1683.11 -281.097 1694.88 -297.668 1710.12 -301.843C1717.41 -303.812 1723.99 -300.968 1730.68 -299.692C1734.53 -298.784 1738.56 -298.987 1742.29 -300.278C1746.03 -301.569 1749.33 -303.894 1751.8 -306.984C1761.58 -317.463 1768.07 -330.585 1770.46 -344.72C1771.79 -353.47 1776.11 -359.085 1782.77 -363.806C1785.72 -365.903 1788.67 -367.999 1791.59 -370.15C1810.61 -384.205 1826.34 -403.11 1850.45 -409.745C1853.74 -410.561 1856.64 -412.494 1858.66 -415.214C1865 -426.152 1876.15 -428.139 1886.43 -432.533C1896.71 -436.926 1907.41 -442.195 1910.12 -455.466C1911.13 -460.497 1914.64 -464.089 1920.53 -462.958C1922.7 -471.344 1927.82 -477.159 1933.29 -483.011C1946.65 -497.486 1955.4 -513.473 1949.18 -534.055H2186.11V-380.869C2174.85 -381.562 2164.73 -377.916 2154.74 -373.158C2142.1 -367.124 2127.62 -366.759 2114.85 -361.673C2092.43 -352.741 2070.83 -341.985 2047.87 -333.964C2029.65 -327.602 2015.56 -332.56 2001 -341.383C1993.32 -346.05 1985.34 -350.498 1976.3 -347.162C1962.78 -342.094 1949.67 -346.16 1937.43 -349.787C1933.48 -351.226 1929.35 -352.098 1925.16 -352.376C1923.15 -352.381 1921.15 -351.991 1919.29 -351.228C1917.72 -350.553 1916.34 -348.584 1914.53 -348.675C1912.46 -349.312 1910.63 -350.588 1909.32 -352.321C1904.78 -360.962 1897.09 -360.106 1889.51 -359.23C1882.84 -358.45 1876.41 -356.263 1870.65 -352.814C1861.28 -347.217 1852.04 -341.365 1842.71 -335.714C1836.35 -332.113 1830.89 -327.117 1826.75 -321.102C1822.6 -315.087 1819.87 -308.209 1818.76 -300.986C1817.45 -293.348 1812.33 -289.119 1804.31 -290.632C1793.37 -292.692 1784 -289.173 1775.15 -283.485C1771.86 -281.346 1768.11 -280.004 1764.21 -279.566C1749.12 -277.834 1734.03 -276.704 1718.85 -278.527C1712.8 -279.256 1709.23 -276.704 1708.04 -270.324C1705.29 -255.284 1709.52 -240.864 1712.58 -226.572C1714.22 -218.988 1715.91 -209.892 1722.35 -204.386C1730.91 -197.094 1733.9 -187.578 1735.25 -177.206C1736.4 -168.455 1741.41 -163.697 1749.69 -161.82C1763.96 -158.71 1778.71 -158.548 1793.04 -161.346C1808.75 -164.189 1823.81 -171.664 1840.43 -168.893C1856.6 -166.195 1872.91 -165.247 1889.22 -164.044C1899.77 -163.241 1910.58 -163.46 1920.64 -159.486C1929.1 -156.15 1939.39 -155.02 1941.11 -142.933C1941.48 -141.772 1942.11 -140.712 1942.96 -139.836C1943.8 -138.961 1944.84 -138.292 1945.99 -137.884C1957.76 -134.694 1959.99 -125.907 1960.46 -115.479C1960.7 -110.393 1962.83 -104.961 1968.9 -105.526C1979.84 -106.528 1991.26 -106.583 2000.92 -113.583C2005.4 -116.719 2010.15 -119.434 2015.12 -121.696C2032.03 -129.662 2049.62 -136.134 2064.95 -147.436C2073.08 -153.434 2081.35 -158.994 2086.82 -167.69C2093.56 -178.5 2102.46 -187.87 2107.94 -199.519C2108.64 -201.069 2109.64 -202.459 2110.89 -203.604C2112.15 -204.749 2113.62 -205.623 2115.23 -206.173C2117.84 -207.031 2120.17 -208.567 2121.98 -210.624C2123.8 -212.68 2125.04 -215.184 2125.56 -217.876C2126.34 -220.164 2127.58 -222.268 2129.21 -224.056C2145.14 -243.635 2165.3 -258.128 2186.42 -271.454V-178.482C2173.66 -173.013 2164.77 -161.765 2152.57 -155.713C2137.65 -148.311 2125.11 -138.048 2113.17 -126.764C2109.89 -123.646 2106.7 -120.128 2102.8 -118.013C2095.84 -114.103 2090.02 -108.449 2085.91 -101.606C2082.26 -95.9186 2077.16 -88.8455 2075.9 -82.2098C2075.5 -80.0587 2075.9 -79.7305 2077.72 -78.2904C2080.8 -75.8293 2083.85 -73.3318 2086.84 -70.8526C2092.67 -66.1311 2098.54 -61.4278 2104.48 -56.8339C2106.32 -55.8036 2108.46 -55.4247 2110.55 -55.7583C2117.23 -56.2383 2123.94 -55.3831 2130.29 -53.2426C2145.92 -48.4663 2161.27 -42.8515 2178.24 -46.5522C2180.71 -47.0991 2183.58 -45.8595 2186.27 -45.4584L2186 16.5413ZM677.582 806.568C686.184 817.615 689.337 830.668 698.03 840.749C700.546 843.981 703.88 846.482 707.687 847.992C711.494 849.501 715.635 849.965 719.682 849.335C729.542 848.205 737.379 843.192 744.815 837.358C751.923 831.762 759.504 830.285 767.76 834.095C771.57 835.918 774.504 834.806 777.985 833.001C792.24 825.479 805.48 816.174 817.388 805.31C844.562 780.7 872.228 757.001 904.359 738.589C921.582 728.727 936.928 715.455 952.675 703.168C972.048 688.019 990.948 672.305 1012.53 660.182C1020.75 655.57 1028.38 649.937 1032.98 641.242C1040.61 626.749 1048.72 612.475 1054.59 597.125C1059.14 585.206 1064.99 573.823 1072.03 563.181C1075.68 557.621 1079.94 555.215 1086.72 554.413C1111.89 551.441 1141.05 532.099 1144.37 499.067C1147.03 472.543 1147.87 445.891 1152.5 419.439C1159.44 379.862 1175.83 344.35 1195.78 310.333C1205.2 294.273 1209.38 279.015 1202.74 261.222C1198.88 250.868 1193.47 240.732 1196.33 228.883C1196.97 226.203 1195.27 223.742 1193.39 221.591C1188.94 216.55 1186.2 210.223 1185.58 203.525C1185.17 199.259 1183.75 194.72 1178.72 193.881C1173.69 193.043 1172.14 197.381 1170.01 200.644C1163.2 210.981 1160.28 211.582 1150.55 204.29C1144.13 199.478 1137.44 196.616 1129.51 200.644C1126.78 202.03 1124.21 201.228 1121.7 199.934C1110.94 194.465 1101.76 197.053 1093.7 205.402C1089.53 209.705 1084.79 212.549 1078.5 212.403C1061.89 211.895 1045.32 214.232 1029.49 219.312C1010.2 225.877 992.279 235.951 976.641 249.026C957.121 265.178 936.691 280.345 918.138 297.609C904.25 310.552 895.01 329.037 896.96 346.301C899.457 368.323 894.682 384 881.341 401.1C862.532 425.254 859.033 454.787 861.876 484.957C862.532 491.903 864.665 499.158 863.407 505.757C859.762 524.589 865.102 541.123 874.051 557.074C876.094 560.337 877.13 564.13 877.03 567.979C876.929 571.828 875.696 575.562 873.486 578.713C856.864 603.087 834.775 620.277 805.778 627.606C790.433 631.47 775.251 636.63 758.939 632.382C754.529 631.233 750.064 633.731 746.182 636.174C743.156 637.997 740.714 640.549 740.714 644.122C740.55 656.555 733.552 664.995 724.767 672.524C721.432 675.368 718.498 678.649 718.953 683.316C720.302 697.171 718.206 711.244 721.013 724.971C723.819 738.698 720.393 750.201 711.371 761.212C699.379 775.504 688.9 791.109 677.582 806.568ZM1365.57 -116.154C1373.62 -118.761 1380.97 -118.451 1388.13 -117.831C1399.44 -116.829 1410.73 -119.907 1419.97 -126.508C1427.33 -131.401 1435.57 -134.824 1444.23 -136.589C1457.24 -139.506 1470.33 -142.186 1483.25 -145.431C1487.62 -146.525 1491.87 -148.73 1491.96 -154.546C1492.05 -160.361 1489.79 -164.481 1484.43 -166.887C1474.94 -171.19 1465.26 -174.489 1454.56 -173.359C1447.38 -172.593 1440.38 -171.354 1433.6 -176.185C1430.23 -178.573 1424.76 -178.008 1421.34 -175.583C1410.51 -168.072 1397.79 -162.822 1389.46 -152.285C1386.96 -148.859 1383.72 -146.049 1379.97 -144.069C1376.22 -142.088 1372.07 -140.989 1367.83 -140.855C1359.97 -140.399 1352.12 -139.579 1344.3 -138.668C1340.66 -138.248 1337.01 -137.082 1335.3 -133.308C1328.01 -116.427 1318.71 -100.494 1312.22 -83.0848C1306.39 -67.4801 1300.71 -51.7842 1291.65 -37.5102C1284.63 -26.4811 1283.61 -13.5015 1282.19 -0.850037C1281.82 2.44958 1281.84 7.13464 1285.29 7.99146C1295.71 10.5801 1303.24 20.7524 1315.43 18.82C1321.35 17.8721 1327.1 19.7315 1330.01 25.7656C1332.82 31.4897 1336.94 31.7632 1342.09 29.5392C1345.74 27.9896 1349.39 26.039 1353.45 27.4792C1365.9 31.7814 1381.5 28.8464 1388.77 44.2507C1404.21 37.1957 1418.75 31.0522 1427.77 16.9059C1437.74 1.33759 1450.92 -10.0743 1468.87 -15.5433C1481.63 -19.4445 1493.09 -26.2624 1504.46 -33.2262C1521.71 -43.7995 1534.77 -59.2402 1550.41 -71.6729C1560.09 -79.3842 1560.42 -86.8219 1551.25 -95.2259C1542.08 -103.63 1535.67 -112.471 1532.8 -124.704C1530.98 -132.652 1526.39 -140.254 1516.51 -140.801C1507.13 -141.329 1497.78 -141.384 1488.59 -138.285C1474.47 -133.545 1460.07 -129.662 1445 -129.844C1436.8 -130.089 1428.77 -127.515 1422.25 -122.552C1415.83 -117.867 1409.91 -111.286 1400.8 -111.615C1389.61 -111.997 1378.38 -112.745 1367.1 -108.771L1365.57 -116.154ZM1208.12 495.458C1217.05 495.111 1222.52 489.369 1226.05 481.566C1234.24 463.501 1251.1 454.222 1266.53 444.997C1276.81 438.89 1288.68 434.059 1299.98 429.028C1307.81 425.51 1312.08 419.64 1311.48 411.236C1310.8 401.938 1314.41 394.738 1320.39 388.266C1323.09 385.331 1326.38 382.378 1325.98 378.221C1325.02 368.596 1330.25 362.307 1335.26 354.814C1346.2 338.316 1359.92 334.16 1379 337.715C1416.11 344.606 1435.17 315.602 1433.06 283.353C1432.36 272.798 1430.38 261.97 1430.31 251.05C1430.03 244.679 1429.22 238.343 1427.88 232.109C1426.84 226.385 1423.25 223.942 1417.31 225.036C1411.91 225.934 1406.73 227.865 1402.06 230.724C1397.64 233.363 1392.62 234.826 1387.48 234.971C1356.22 237.341 1330.85 250.868 1311.68 275.806C1303.88 285.978 1295.27 295.367 1283.7 301.328C1280.66 302.896 1277.43 304.445 1274.3 302.094C1267.77 297.153 1263.36 300.635 1260.01 305.904C1255.05 313.943 1248.93 321.071 1243.33 328.618C1226.51 351.314 1225.23 376.526 1232 402.85C1233.56 407.761 1233.29 413.073 1231.23 417.798C1228.13 425.381 1223.61 432.304 1217.93 438.198C1203.82 452.07 1203.95 470.282 1203.77 488.202C1203.78 489.689 1204.2 491.144 1204.96 492.418C1205.73 493.693 1206.82 494.742 1208.12 495.458ZM1416.29 389.852C1416.21 389.87 1416.12 389.87 1416.04 389.852C1415.01 389.615 1413.9 387.409 1413.54 386.534C1412.57 383.873 1412.49 380.967 1413.32 378.258C1415.14 370.966 1414.25 363.802 1413.83 356.546C1413.47 350.02 1410.18 346.21 1403.61 346.137C1392.32 345.991 1381.32 343.074 1370.16 342.746C1355.09 342.309 1344.15 346.884 1339.56 361.559C1336.21 372.26 1331.72 382.815 1324.51 391.511C1319.01 398.024 1316.02 406.285 1316.07 414.809C1315.69 430.304 1314.88 429.101 1300.72 435.226C1274.46 446.602 1247.87 457.904 1231.65 483.991C1229.35 487.576 1226.38 490.673 1222.88 493.106C1195 512.557 1192.28 544.733 1182.24 573.153C1180.42 578.458 1183.26 581.211 1188.89 582.596C1201.65 585.732 1211.69 582.177 1219.4 571.877C1225.25 564.056 1232.78 557.913 1241.86 555.47C1262.36 550.001 1277.94 537.24 1293 523.367C1306.06 511.372 1307.27 502.13 1298.04 487.272C1291.54 476.772 1293.69 472.05 1305.23 467.675C1315.12 463.902 1325.77 465.305 1335.5 462.206C1353.92 456.5 1373.02 458.56 1391.23 459.526C1419.48 460.93 1437.09 442.974 1428.61 416.012C1427.99 414.025 1427.7 411.947 1427.12 409.358C1435.72 406.824 1435.96 398.42 1439.55 392.349C1448.77 376.891 1447.8 372.971 1433.04 361.705C1432.44 361.268 1424.15 373.646 1423.45 374.812C1422.03 377.218 1420.74 379.694 1419.57 382.232C1418.99 383.508 1418.42 384.802 1417.91 386.097C1417.57 387.081 1417.18 389.633 1416.29 389.852ZM1044.37 164.021C1050.78 163.943 1057 161.788 1062.08 157.877C1068.98 152.402 1076.52 147.792 1084.53 144.15C1105.44 135.035 1126.07 125.537 1142.97 109.659C1163.27 90.5909 1186.98 75.1502 1203.8 52.4359C1209.05 45.3444 1214.74 37.5056 1211.57 28.336C1207.39 16.3225 1211.04 5.94971 1218.56 -1.79797C1228.62 -12.189 1228.93 -26.39 1235.75 -37.9295C1239.01 -43.0121 1241.29 -48.665 1242.46 -54.5916C1243.13 -59.1308 1242.46 -63.2508 1238.43 -65.8941C1234.4 -68.5374 1231.65 -65.2195 1228.97 -62.9044C1221.89 -56.5929 1212.76 -53.08 1203.27 -53.0238C1185.74 -52.6592 1170.8 -47.0627 1160.63 -31.3668C1155.54 -23.5279 1148.96 -16.6371 1143.09 -9.29047C1126.34 11.5611 1114.76 36.0787 1109.28 62.2617C1105.93 77.8482 1098.86 93.1066 1083 102.094C1069.07 110.12 1055.94 119.46 1043.78 129.986C1038.32 134.598 1033.34 139.374 1031.52 146.502C1028.69 157.494 1033.56 163.984 1044.37 164.021ZM1558.17 -264.636C1553.07 -264.873 1549.43 -264.928 1545.8 -265.219C1544.89 -265.379 1543.96 -265.349 1543.06 -265.129C1542.17 -264.909 1541.33 -264.505 1540.6 -263.942C1539.87 -263.38 1539.26 -262.671 1538.82 -261.861C1538.38 -261.052 1538.11 -260.159 1538.04 -259.24C1536.21 -248.502 1532.9 -237.656 1535.12 -226.791C1538.14 -212.079 1540.95 -196.602 1552.63 -185.919C1559.43 -179.703 1566.38 -173.286 1570.51 -165.63C1575.87 -155.731 1583.78 -152.869 1593.37 -149.861C1604.3 -146.434 1617.06 -143.407 1624.72 -135.878C1640.13 -120.711 1660.04 -124.357 1675.75 -133.035C1678.72 -134.657 1681.74 -136.79 1682.12 -140.327C1683.95 -155.931 1686.83 -171.609 1678.86 -186.612C1674.38 -195.053 1671.57 -203.967 1674.43 -213.72C1676.53 -221.012 1673.18 -225.824 1667.14 -229.616C1647.21 -242.122 1628.16 -256.25 1602.94 -256.578C1587.19 -256.779 1572.99 -266.842 1558.17 -264.636ZM611.989 916.767C612.371 916.676 612.772 916.603 613.155 916.549C615.124 916.275 617.147 916.549 619.115 916.275C623.803 915.363 628.393 914.001 632.82 912.21C645.359 907.634 657.388 901.783 670.201 897.863C685.82 893.069 698.522 881.456 714.925 878.211C716.138 877.905 717.195 877.164 717.898 876.129C718.6 875.094 718.898 873.837 718.734 872.597C718.634 871.048 718 869.581 716.939 868.448C715.879 867.314 714.459 866.584 712.921 866.38C703.37 864.758 696.773 858.578 689.884 852.544C685.583 848.77 684.89 842.864 680.771 839.035C666.428 825.636 649.369 820.477 630.014 821.571C619.078 822.191 610.403 827.204 605.501 836.301C598.867 848.624 588.332 853.747 575.775 853.82C556.748 853.929 537.666 852.854 518.73 851.122C514.058 850.629 509.335 851.099 504.852 852.504C500.37 853.908 496.223 856.218 492.668 859.289C484.411 866.07 483.664 878.284 489.988 886.834C496.313 895.384 503.329 903.241 506.3 913.942C507.072 916.804 508.863 919.286 511.338 920.918C513.812 922.55 516.798 923.22 519.732 922.802C531.98 921.562 544.737 921.817 555.344 913.687C558.534 911.262 562.143 909.585 566.389 911.007C574.08 913.577 581.479 917.187 589.444 918.919C593.433 919.838 597.549 920.078 601.619 919.63C603.707 919.357 605.765 918.881 607.76 918.208C609.182 917.788 610.567 917.096 611.989 916.767ZM1174.02 445.763C1174.29 446.58 1174.37 447.445 1174.26 448.297C1174.19 449.419 1174.01 450.531 1173.71 451.615C1173.13 453.751 1172.36 455.831 1171.42 457.831C1169.73 461.31 1167.72 464.619 1165.4 467.712C1157.76 478.048 1153.74 490.609 1153.94 503.46C1153.97 510.185 1152.07 516.778 1148.47 522.456C1139.65 537.423 1126.6 548.397 1113.57 559.262C1091.99 577.31 1071.65 596.214 1058.89 621.827C1055.48 628.608 1052.17 635.444 1048.56 642.117C1044.95 648.789 1038.52 655.99 1044.42 662.807C1050.76 670.099 1059.69 664.776 1067.48 662.807C1068.06 662.653 1068.63 662.42 1069.15 662.115C1088.22 650.721 1109.25 645.198 1130.75 640.604C1140.98 638.416 1147.7 629.811 1151.51 621.717C1156.5 611.613 1159.44 600.623 1160.17 589.378C1161.08 567.137 1167.99 546.173 1176.17 526.157C1185.11 504.837 1189.22 481.802 1188.2 458.706C1187.73 447.932 1188 437.031 1182.61 427.351C1182.37 426.932 1180.49 427.953 1180.24 428.135C1179.64 428.662 1179.12 429.276 1178.71 429.958C1178.27 430.647 1177.77 431.294 1177.21 431.89C1176.76 432.336 1176.2 432.656 1175.59 432.82C1174.51 432.82 1175.59 430.997 1175.75 430.341C1175.92 429.684 1176.28 428.518 1176.54 427.697C1177.03 425.874 1177.48 424.051 1177.81 422.319C1178.55 418.564 1178.63 414.709 1178.05 410.926C1177.78 409.286 1177.38 407.671 1176.85 406.095C1176.57 405.256 1176.24 404.436 1175.92 403.634C1175.76 403.011 1175.55 402.402 1175.3 401.811C1174.66 400.808 1174.37 402.121 1174.11 402.759C1173.44 404.418 1172.96 406.15 1172.29 407.827L1169.83 414.262C1168.24 418.382 1166.69 422.538 1165.42 426.768C1162.69 434.98 1161.76 443.684 1162.69 452.289C1162.82 453.516 1163.03 454.733 1163.3 455.935C1164.65 455.907 1165.96 455.593 1167.17 455.014C1168.38 454.436 1169.46 453.606 1170.32 452.581C1171.12 451.494 1171.77 450.304 1172.25 449.044C1172.67 448.042 1172.8 446.292 1174.02 445.763ZM550.715 803.341C544.136 792.021 537.848 780.663 530.977 769.671C526.949 763.236 521.154 763.728 515.085 767.246C507.357 771.694 501.689 778.622 494.672 783.854C477.796 796.45 458.112 802.393 437.864 807.042C419.639 811.198 400.848 812.511 383.808 822.009C372.453 828.353 361.609 835.535 350.31 841.934C338.86 848.09 327.033 853.515 314.898 858.177C309.488 860.362 304.797 864.018 301.356 868.732C298.805 872.268 295.889 876.789 295.142 881.146C294.012 888.11 305.275 887.199 309.467 886.469C320.854 884.724 332.386 884.113 343.894 884.646C368.207 885.212 390.642 878.321 411.2 865.651C416.668 862.297 422.281 859.599 427.877 856.664C445.701 847.348 466.314 845.543 483.628 834.788C502.236 823.303 521.573 813.186 543.152 808.227C544.697 807.996 546.175 807.441 547.491 806.599C548.807 805.758 549.931 804.647 550.788 803.341H550.715ZM1428.46 123.222C1427.48 116.951 1429.03 110.698 1423.36 107.381C1409.44 99.2682 1382.7 104.427 1375.98 117.352C1366.15 136.074 1359.17 156.328 1346 173.373C1337.05 184.556 1330.81 197.659 1327.77 211.655C1326.97 216.349 1324.79 220.699 1321.51 224.152C1318.24 227.605 1314.01 230.007 1309.36 231.052C1306.25 231.836 1302.69 232.492 1301.34 236.721C1303.17 244.104 1308.03 242.464 1313.19 240.367C1339.14 229.429 1363.69 215.356 1391.27 208.1C1400.4 205.709 1409.03 201.729 1416.78 196.342C1432.49 185.404 1444.45 170.292 1458.81 157.841C1460.58 156.187 1461.85 154.062 1462.46 151.716C1464.93 142.272 1452.23 117.316 1443.1 113.105C1441.72 112.415 1440.15 112.219 1438.65 112.551C1437.15 112.883 1435.8 113.722 1434.84 114.928C1432.8 117.061 1431.18 119.649 1428.54 123.222H1428.46ZM1194.34 195.832C1195.96 201.902 1201.63 205.548 1205.28 210.671C1209.94 217.507 1217.12 222.137 1225.53 219.877C1234.35 217.489 1239.3 211.236 1239.23 200.973C1239.01 174.266 1248.96 150.585 1263.36 128.764C1270.07 118.61 1279.93 112.175 1292.8 114.636C1312.55 118.391 1325.78 107.18 1338.36 95.1666C1344.79 88.9684 1341.73 75.9888 1334.4 75.1138C1327.08 74.2387 1322.92 70.447 1319.93 64.4128C1318.17 60.6867 1315.56 57.4261 1312.31 54.8931C1309.06 52.3602 1305.26 50.6257 1301.22 49.829C1294.37 48.3876 1288.29 44.4987 1284.1 38.8911C1278.76 32.2736 1272.66 32.857 1267.7 39.8572C1265.26 42.9597 1263.49 46.5354 1262.51 50.3576C1258 73.9106 1240.85 89.1143 1225.65 105.193C1216.87 114.472 1212.13 123.933 1215.14 136.184C1218.91 151.369 1213.21 165.589 1211.49 180.172C1210.95 185.058 1206.68 189.087 1201.56 191.293C1199.15 192.386 1196.02 192.368 1194.42 195.832H1194.34ZM1370.8 106.651C1364.02 104.992 1359.32 107.198 1354.69 109.331C1339.51 116.331 1324.22 122.821 1307.18 123.715C1304.84 123.667 1302.58 124.491 1300.82 126.025C1299.07 127.559 1297.95 129.693 1297.68 132.009C1296.48 140.96 1290.86 146.447 1284.36 151.606C1277.85 156.765 1271.18 162.307 1264.64 167.721C1246.18 182.943 1245.96 201.611 1250.28 222.411C1251.5 228.244 1255.74 229.411 1260.7 227.169C1263.32 225.685 1265.85 224.035 1268.26 222.229C1276.28 217.343 1284.39 215.611 1292.96 221.244C1306.92 230.359 1318.66 226.804 1323.72 210.762C1330.05 190.709 1338.98 171.86 1346.12 152.244C1347.92 146.73 1351.12 141.775 1355.4 137.861C1364.91 129.749 1366.63 118.246 1370.87 106.651H1370.8ZM1467.12 8.86652C1466.92 8.70245 1466.54 8.6842 1465.86 8.86652C1463.87 9.53601 1461.94 10.3904 1460.1 11.4187C1457.78 12.5472 1455.53 13.8323 1453.38 15.2651C1449.25 18.0356 1445.52 21.3533 1442.28 25.1275C1435.78 32.7672 1427.94 39.1553 1419.15 43.9772C1400.78 53.9489 1382.5 64.03 1367.9 79.4342C1364.79 82.7338 1360.08 85.2131 1362.12 90.5909C1364.31 96.388 1369.87 95.3307 1374.65 95.4036C1376.16 95.3935 1377.68 95.247 1379.17 94.9661C1397.81 91.6847 1416.53 92.1769 1435.21 94.4921C1441.68 95.3124 1446.34 93.6171 1449.55 87.6559C1455.02 77.5383 1459.81 67.0562 1466.65 57.686C1469.13 53.811 1470.32 49.2462 1470.04 44.6517C1469.73 38.6545 1468.94 32.692 1467.67 26.8229C1467.13 23.8102 1466.79 20.7654 1466.65 17.708C1466.65 15.3928 1467.16 13.0047 1467.27 10.6895C1467.39 9.79626 1467.5 9.13995 1467.19 8.86652H1467.12ZM1154.16 155.471C1151.44 153.359 1148.26 151.926 1144.87 151.292C1141.49 150.658 1138.01 150.84 1134.71 151.825C1106.76 158.546 1079.1 166.318 1051.73 175.141C1041.81 178.295 1032.32 182.214 1024.39 189.032C1019.67 193.061 1016.83 197.782 1022.04 205.311C1071.07 204.199 1114.46 187.081 1154.23 155.471H1154.16ZM1264.13 289.041C1267.73 289.268 1271.34 288.643 1274.66 287.218C1291.67 278.778 1303.64 246.383 1295.78 229.101C1292.83 222.611 1287.02 220.132 1279.96 221.025C1277.24 221.398 1274.62 222.329 1272.27 223.759C1269.91 225.189 1267.88 227.088 1266.3 229.338C1262.39 234.388 1257.63 238.708 1252.23 242.099C1241.73 249.154 1238.96 260.475 1235.82 271.54C1235.04 274.202 1235.28 277.538 1238.1 278.832C1246.59 282.588 1254.21 288.695 1264.2 289.041H1264.13ZM1292.5 13.4969C1286.05 16.3043 1279.02 18.2002 1283.52 25.9114C1287.6 32.8935 1293.36 39.8026 1301.49 41.8625C1312.42 44.6517 1318.73 51.5425 1325.05 60.2929C1331.82 69.663 1343.92 70.9938 1354.42 74.1476C1355.67 74.5122 1357.9 73.0173 1359.14 71.8323C1365.65 65.923 1371.85 59.6736 1377.71 53.1104C1381.83 48.2247 1383.79 39.3651 1377.82 37.1775C1367.36 33.3674 1356.15 26.6771 1344.1 32.9846C1337.23 36.6306 1331.34 35.0263 1327.5 28.9011C1326.15 26.5202 1324.14 24.5839 1321.72 23.3304C1319.29 22.077 1316.55 21.561 1313.83 21.8462C1305.72 22.1196 1298.06 21.3539 1292.58 13.4969H1292.5ZM905.307 756.181C913.399 762.488 918.575 760.629 923.66 758.696C938.605 753.009 950.998 741.998 967.146 738.644C975.383 736.821 983.166 733.175 991.276 730.677C998.294 728.533 1004.3 723.931 1008.21 717.716C1011.09 713.45 1014.28 709.403 1017.32 705.301C1022.99 697.754 1028.71 690.225 1034.42 682.696L1032.06 679.798C986.41 698.192 949.121 730.659 905.307 756.181ZM1133.87 186.37C1138.08 194.902 1144.57 197.308 1150.42 200.134C1159.53 204.546 1164.82 202.631 1169.45 193.517C1171.96 188.54 1175.64 186.644 1180.89 186.097C1196.58 184.475 1203.2 180.628 1203.82 171.659C1204.51 161.56 1213.33 152.718 1208.27 141.835C1207.26 139.702 1207.06 137.059 1202 135.509C1184.52 157.786 1155.63 166.974 1133.87 186.37ZM1200.14 414.244C1209.01 406.186 1219.64 399.787 1220.19 387.865C1221.12 369.216 1217.56 350.494 1219.31 331.681C1219.64 328.035 1218.4 323.331 1213.44 322.566C1211.17 322.12 1208.81 322.572 1206.85 323.825C1204.9 325.078 1203.51 327.037 1202.96 329.292C1201.48 333.519 1198.92 337.288 1195.55 340.23C1193.31 342.341 1191.74 345.063 1191.04 348.058C1190.33 351.053 1190.53 354.188 1191.59 357.075C1194.18 364.148 1192.63 370.474 1191.44 377.419C1189.35 389.852 1187.69 402.741 1200.14 414.207V414.244ZM796.174 608.027C801.113 610.506 805.086 609.121 808.585 607.644C823.585 601.264 838.147 593.844 852.891 586.917C859.562 583.763 863.425 576.799 864.355 569.708C864.993 564.786 864.355 555.361 860.801 551.569C857.247 547.777 853.821 551.806 850.321 553.793C844.507 557.111 838.748 560.52 832.679 563.382C823.84 567.575 815.967 574.21 808.367 580.591C800.11 587.464 793.24 595.576 796.174 607.99V608.027ZM1562.69 -96.4838C1570.95 -102.481 1579.43 -103.138 1586.84 -106.565C1593.33 -109.573 1594.73 -114.258 1589.59 -117.211C1583.93 -120.456 1581.12 -125.688 1577.35 -130.337C1569.09 -140.545 1558.72 -145.03 1545.89 -143.097C1544.23 -138.941 1543.43 -135.259 1541.48 -132.342C1539.63 -129.854 1538.81 -126.748 1539.18 -123.67C1539.56 -120.591 1541.11 -117.775 1543.5 -115.807C1550.32 -110.266 1557.52 -105.271 1562.69 -96.4838ZM69.7672 940.065C69.9384 940.354 70.1758 940.597 70.4598 940.776C72.2823 941.998 76.3831 942.125 78.5701 942.49C84.4408 943.633 90.5057 943.263 96.1939 941.414C106.109 937.896 115.677 933.502 125.938 930.677C130.693 929.405 135.333 927.734 139.807 925.682C143.325 924.023 147.48 922.82 150.396 920.213C154.934 916.038 144.764 914.999 142.012 914.434C137.913 913.605 133.759 913.075 129.583 912.848C120.701 912.304 111.787 913.009 103.101 914.944C95.3436 916.51 87.9763 919.609 81.4315 924.059C78.4874 926.16 75.8762 928.692 73.6857 931.57C72.6099 933.027 71.6646 934.577 70.8608 936.2C70.2047 937.513 69.0929 938.971 69.7672 940.065ZM-290.11 1088.84C-290.11 1089.64 -289.545 1090.42 -287.978 1091.15C-284.624 1092.7 -280.359 1092.5 -276.751 1092.69C-272.103 1092.94 -267.438 1092.48 -262.79 1092.5C-249.522 1092.5 -237.147 1088.02 -225.939 1081.16C-221.984 1078.76 -216.17 1075.26 -218.648 1069.06C-220.981 1063.19 -226.941 1062.75 -232.609 1063.12C-237.413 1063.69 -242.243 1064 -247.08 1064.06C-255.875 1063.82 -264.501 1066.51 -271.593 1071.72C-275.232 1074.32 -278.702 1077.14 -281.981 1080.18L-286.939 1084.66C-288.397 1085.99 -290.11 1087.45 -290.11 1088.84ZM1218.05 73.2543L1217.83 73.0355C1213.15 68.8973 1195.31 82.8979 1191.57 85.4501C1180.18 93.2524 1168.72 101.274 1161.7 113.852C1160.52 115.625 1159.97 117.75 1160.16 119.874C1160.34 121.999 1161.25 123.997 1162.72 125.538C1165.78 129.183 1169.05 127.233 1172.6 126.321C1187.36 122.548 1197.91 112.941 1204.86 100.307C1206.99 96.4427 1222.39 78.1035 1218.05 73.2543ZM1220.59 39.4926C1221.77 39.8572 1223.07 38.7634 1224.63 37.7973C1229.36 34.8766 1233.65 31.3118 1237.39 27.2057C1244.68 19.2211 1250.48 8.39258 1248.69 -2.74585C1248.47 -4.04266 1248.16 -5.32208 1247.76 -6.57416C1246.63 -9.98315 1243.1 -9.36334 1239.94 -9.07166C1236.9 -8.80481 1233.93 -7.98962 1231.18 -6.66534C1225.77 -3.84381 1221.4 0.625671 1218.71 6.09552C1215.97 11.3199 1214.71 17.1957 1215.06 23.0858C1215.26 26.0914 1215.83 29.061 1216.76 31.9272C1217.28 34.0759 1218.04 36.1605 1219.02 38.1436C1219.34 38.7825 1219.91 39.2673 1220.59 39.4926ZM1238.39 226.44C1233.29 224.908 1229.54 226.677 1225.64 227.005C1221.43 227.369 1217.18 227.26 1212.88 227.515C1203.38 228.117 1198.61 234.807 1202.07 243.794C1204.93 250.499 1209.06 256.589 1214.23 261.733C1216.81 264.504 1220.17 265.379 1223.05 262.498C1233.02 252.672 1240.8 241.88 1238.39 226.44ZM1102.34 34.0601C1102.09 33.9116 1101.81 33.8068 1101.52 33.7502C1096.96 32.8934 1088.95 44.2871 1086.94 47.2403C1082.41 53.691 1078.96 60.8323 1076.72 68.387C1075.35 73.072 1071.83 85.9969 1077.81 86.3251C1087.03 86.8173 1095.82 71.7412 1099.19 65.0144C1101.93 59.6733 1103.73 53.9022 1104.53 47.9513C1104.82 44.8705 1105.66 35.9378 1102.34 34.0601ZM1185.92 -76.0299C1196.49 -75.9205 1205.2 -80.6602 1213.26 -86.8766C1216.27 -89.2283 1219.68 -92.3456 1216.63 -96.8301C1213.88 -100.877 1210.05 -100.221 1206.08 -98.6531C1200.43 -96.4109 1194.71 -94.2962 1188.51 -96.6843C1183.64 -98.5073 1179 -98.963 1175.24 -94.4967C1171.8 -90.3768 1173.22 -85.8922 1174.68 -81.5535C1176.5 -75.9934 1181.35 -76.2486 1185.92 -76.0299ZM-135.723 1040.15C-135.759 1040.07 -135.802 1040 -135.851 1039.93C-136.58 1038.82 -141.428 1038.21 -142.74 1037.87C-145.474 1037.16 -148.208 1036.56 -151.014 1036.05C-161.742 1034.1 -172.757 1034.4 -183.364 1036.92C-187.884 1038.03 -192.058 1039.16 -191.274 1044.7C-190.49 1050.25 -185.515 1050.88 -181.396 1050.17C-169.659 1048.13 -157.903 1048.81 -146.13 1048.81C-143.596 1048.92 -141.103 1048.14 -139.077 1046.62C-137.728 1045.58 -134.921 1041.99 -135.723 1040.15ZM1290.63 126.413C1286.93 125.095 1282.92 124.933 1279.12 125.949C1275.33 126.965 1271.94 129.11 1269.39 132.1C1262.92 139.192 1258.46 147.614 1260.1 157.896C1275.06 159.755 1291.63 142.327 1290.63 126.413ZM534.039 926.703L533.893 926.539C533.091 925.791 530.066 925.937 529.009 925.919C525.849 925.837 522.709 926.448 519.81 927.707C516.91 928.967 514.321 930.845 512.223 933.211C509.128 936.68 507.163 941.011 506.592 945.625C506.191 948.761 505.936 954.321 507.394 957.183C508.451 959.261 510.328 958.094 512.314 957.493C514.426 956.95 516.491 956.243 518.493 955.378C521.676 953.877 524.503 951.714 526.785 949.034C529.134 946.16 530.91 942.861 532.016 939.318C533.087 936.423 533.844 933.423 534.276 930.367C534.367 929.328 534.677 927.487 534.039 926.612V926.703ZM-682.92 1279.87C-674.555 1272.58 -669.506 1264.54 -667.848 1254.62C-667.155 1250.48 -667.957 1246.78 -672.35 1244.8C-676.742 1242.81 -679.968 1244.49 -682.556 1247.99C-686.044 1252.17 -688.72 1256.97 -690.447 1262.13C-692.525 1269.66 -690.192 1275.48 -682.92 1279.87ZM1566.34 -346.707C1571.81 -342.587 1590.03 -357.189 1591.09 -366.541C1591.14 -368.068 1590.84 -369.588 1590.21 -370.979C1589.58 -372.371 1588.63 -373.597 1587.44 -374.562C1584.89 -377.132 1581.78 -376.239 1578.97 -375.036C1570.7 -371.499 1560.87 -349.879 1566.34 -346.707ZM1834.52 -106.784C1821.77 -115.734 1800.06 -112.253 1798.99 -100.822C1803.58 -96.9213 1809.81 -97.7781 1815.13 -95.8093C1824.87 -92.1815 1831.14 -96.0462 1834.45 -106.784H1834.52ZM563.728 846.51C563.728 847.038 564.421 847.366 565.551 847.986C567.059 848.82 568.654 849.486 570.307 849.973C576.736 851.81 583.619 851.159 589.59 848.15C593.487 846.157 596.868 843.287 599.468 839.765C600.914 837.858 602.177 835.819 603.241 833.676C604.152 831.853 605.81 828.207 603.131 827.897C600.452 827.587 596.534 829.72 593.891 830.595C590.216 831.782 586.614 833.182 583.102 834.788C579.642 836.364 576.271 838.129 573.005 840.074C570.271 841.697 566.899 842.864 564.639 845.179C563.947 845.744 563.728 846.163 563.728 846.51ZM1226.38 401.191C1209.74 413.332 1204.88 424.434 1211.53 434.187C1225.62 430.049 1233.53 413.186 1226.38 401.191ZM1419.84 369.179C1419.95 369.179 1420.12 369.179 1420.41 369.179C1422.23 368.997 1424.44 366.81 1425.75 365.643C1427.4 364.159 1428.82 362.446 1429.98 360.557C1432.12 356.748 1433.79 352.688 1434.93 348.47C1435.32 347.204 1435.36 345.856 1435.04 344.571C1434.71 343.287 1434.05 342.114 1433.11 341.178C1432.2 340.209 1431.16 339.375 1430.01 338.699C1428.67 337.879 1428.36 337.952 1427.08 338.863C1423.26 341.743 1420.55 345.85 1419.41 350.494C1418.63 353.411 1418.27 356.426 1418.35 359.445C1418.44 360.972 1418.61 362.493 1418.86 364.002C1419.01 365.059 1419.01 366.135 1419.15 367.192C1419.2 367.639 1419.3 368.079 1419.44 368.505C1419.64 368.888 1419.72 369.052 1419.84 369.106V369.179ZM214.95 890.553C214.804 891.902 224.919 893.251 225.885 893.306C229.881 893.491 233.886 893.284 237.841 892.686C241.221 892.262 244.541 891.455 247.738 890.279C249.912 889.558 251.973 888.533 253.861 887.235C257.306 884.628 255.283 883.972 252.166 883.006C246.39 881.4 240.337 881.052 234.415 881.985C230.804 882.417 227.253 883.249 223.826 884.464C220.928 885.54 216.044 887.199 215.023 890.498L214.95 890.407V890.553ZM879.245 374.94H879.354C880.922 375.815 884.129 370.364 884.822 369.471C886.588 366.944 887.992 364.183 888.995 361.268C891.087 355.66 891.714 349.612 890.818 343.694C890.602 341.98 890.129 340.308 889.414 338.735C888.12 336.256 886.991 338.006 885.642 339.483C883.244 342.096 881.55 345.277 880.721 348.725C878.899 355.708 880.01 363.054 879.336 370.164C879.245 371.002 878.516 374.193 879.245 374.94ZM-448.98 1104.86C-448.852 1105.17 -448.397 1105.28 -447.595 1105.57C-445.744 1106.21 -443.822 1106.63 -441.872 1106.81C-438.132 1107.27 -434.349 1107.27 -430.609 1106.81C-426.457 1106.19 -422.361 1105.23 -418.361 1103.95C-417.104 1103.61 -413.368 1103.61 -413.113 1101.89C-412.857 1100.18 -416.758 1097.63 -417.906 1097.01C-420.555 1095.7 -423.513 1095.15 -426.454 1095.42C-430.272 1095.72 -434.016 1096.64 -437.534 1098.15C-440.596 1099.41 -447.267 1100.14 -448.743 1103.62C-448.998 1104.21 -449.089 1104.55 -448.98 1104.86ZM719.901 664.94C720.05 665.04 720.209 665.125 720.375 665.196C723.309 666.381 728.011 663.227 729.925 661.258C732.643 658.268 734.291 654.458 734.609 650.429C734.846 648.224 735.994 644.578 734.609 642.572C732.95 640.111 728.102 643.156 726.28 644.286C724.07 645.633 722.234 647.513 720.94 649.755C719.482 652.271 716.474 662.534 719.901 664.849V664.94ZM763.951 839.947C763.806 839.509 763.259 839.145 762.129 838.817C760.267 838.32 758.351 838.051 756.424 838.015C753.534 837.864 750.644 838.322 747.941 839.358C745.238 840.395 742.782 841.986 740.732 844.03C739.712 845.033 737.343 847.057 737.652 848.734C737.962 850.411 742.026 851.213 743.521 851.45C745.899 851.808 748.327 851.602 750.611 850.848C755.16 849.332 759.189 846.565 762.238 842.864C763.295 841.533 764.188 840.621 763.951 839.892V839.947ZM1144.46 137.405C1145.2 137.918 1146.06 138.228 1146.96 138.305C1147.86 138.381 1148.76 138.222 1149.58 137.843C1154.68 136.293 1157.47 128.4 1156.87 123.587C1155.87 115.019 1148.25 118.391 1145.15 124.261C1143.15 128.035 1141.69 135.035 1144.46 137.35V137.405ZM867.435 345.225C866.833 344.861 865.74 345.517 864.719 346.137C862.883 347.346 861.184 348.752 859.653 350.33C857.215 352.676 855.101 355.337 853.365 358.241C851.756 360.809 850.58 363.624 849.884 366.573C849.589 367.832 849.467 369.126 849.519 370.419C849.519 371.276 849.519 372.953 850.631 373.153C851.743 373.354 853.237 371.513 854.003 370.948C856.462 369.13 858.641 366.962 860.473 364.513C862.538 361.668 864.16 358.528 865.284 355.197C866.25 352.481 867.927 349.582 867.927 346.647C867.891 345.863 867.708 345.426 867.398 345.244L867.435 345.225ZM860.546 407.079C861.22 407.079 861.785 406.423 862.368 405.694C863.278 404.729 864.102 403.686 864.828 402.576C866.049 400.538 866.872 398.286 867.253 395.941C867.635 393.427 867.635 390.87 867.253 388.357C866.99 386.018 866.375 383.732 865.43 381.576C864.428 379.753 863.115 382.195 862.186 383.18C860.81 384.656 859.589 386.268 858.541 387.993C854.896 393.972 854.896 401.027 859.561 406.441C859.787 406.767 860.124 407.001 860.509 407.097L860.546 407.079ZM1096.27 672.816C1098.33 674.072 1100.65 674.819 1103.05 674.992C1105.45 675.166 1107.86 674.762 1110.07 673.815C1112.28 672.867 1114.24 671.403 1115.77 669.545C1117.3 667.687 1118.36 665.489 1118.87 663.136C1111.31 666.271 1098.46 655.37 1096.27 672.816ZM1526.66 -149.897C1521.61 -157.189 1515.4 -158.246 1509.15 -158.338C1505.5 -158.338 1502.5 -156.223 1502.99 -152.085C1503.43 -148.329 1506.76 -147.546 1509.9 -147.801C1514.96 -148.184 1519.99 -149.022 1526.66 -149.879V-149.897ZM661.307 913.34C666.227 914.361 673.882 911.207 678.183 908.874C680.57 907.575 682.781 905.976 684.763 904.116C685.762 903.201 686.7 902.221 687.569 901.181C688.162 900.561 688.627 899.83 688.936 899.03C687.277 898.519 684.526 899.959 682.831 900.415C680.17 901.144 677.363 901.746 674.83 902.621C672.096 903.484 669.509 904.756 667.157 906.395C665.902 907.316 664.742 908.361 663.694 909.512C662.59 910.568 661.769 911.884 661.307 913.34ZM1097.95 76.0253C1092.48 77.8483 1084.3 87.3277 1087.49 93.2524C1090.57 91.8245 1093.29 89.7328 1095.47 87.1272C1097.49 84.2469 1099.64 79.2155 1097.95 76.0253ZM1524.15 -202.891C1520.05 -201.506 1518.46 -199.154 1519.65 -195.855C1520.7 -192.883 1523.2 -192.209 1526.55 -193.831C1528.58 -197.222 1527.68 -200.084 1524.2 -202.891H1524.15ZM1172.38 395.722C1172.54 395.797 1172.72 395.836 1172.9 395.836C1173.08 395.836 1173.26 395.797 1173.42 395.722C1175.46 394.865 1176.61 391.875 1176.75 389.834C1176.88 388.406 1176.85 386.969 1176.65 385.55C1176.45 384.347 1175.55 381.083 1174.19 383.034C1173.14 384.832 1172.39 386.782 1171.94 388.813C1171.62 389.95 1171.46 391.13 1171.49 392.313C1171.52 393.243 1171.47 395.248 1172.38 395.722Z" fill="#D4EDBC"/>
</g>
<defs>
<clipPath id="clip0_618_57">
<rect width="1440" height="1049" fill="white"/>
</clipPath>
</defs>
</svg>
